<?xml version="1.0" standalone="no"?>
<!DOCTYPE svg PUBLIC "-//W3C//DTD SVG 20010904//EN"
 "http://www.w3.org/TR/2001/REC-SVG-20010904/DTD/svg10.dtd">
<svg version="1.0" xmlns="http://www.w3.org/2000/svg"
 width="686.000000pt" height="308.000000pt" viewBox="0 0 686.000000 308.000000"
 preserveAspectRatio="xMidYMid meet">

<g transform="translate(0.000000,308.000000) scale(0.100000,-0.100000)"
fill="#000000" stroke="none">
<path d="M0 1540 l0 -1540 3430 0 3430 0 0 1540 0 1540 -3430 0 -3430 0 0
-1540z m1130 415 l0 -285 235 0 235 0 0 285 0 285 140 0 140 0 0 -700 0 -700
-140 0 -140 0 0 290 0 290 -235 0 -235 0 0 -290 0 -290 -140 0 -140 0 0 700 0
700 140 0 140 0 0 -285z m2220 -279 c0 -555 0 -564 21 -590 19 -24 26 -26 95
-26 l74 0 0 -110 0 -110 -103 0 c-144 0 -198 17 -264 85 -85 88 -83 68 -83
737 l0 578 130 0 130 0 0 -564z m1702 184 c126 -47 209 -133 250 -260 20 -60
22 -92 26 -412 l4 -348 -131 0 -131 0 0 40 0 40 -44 -33 c-61 -47 -116 -60
-233 -55 -115 5 -180 29 -236 86 -60 62 -82 122 -82 227 0 81 3 95 30 144 34
62 82 101 164 132 47 18 84 22 230 27 l173 5 -6 44 c-8 63 -33 110 -74 141
-29 22 -48 27 -108 30 -65 4 -79 1 -118 -22 -25 -15 -49 -34 -55 -43 -8 -15
-15 -11 -57 24 -27 23 -65 57 -83 77 l-35 36 33 34 c41 42 111 81 182 101 76
21 225 14 301 -15z m-2422 -6 c104 -29 195 -104 244 -202 40 -80 56 -150 58
-267 l3 -110 -324 -3 -324 -2 7 -43 c10 -63 53 -126 105 -154 36 -19 59 -23
125 -23 89 0 137 16 194 65 l34 28 76 -77 77 -77 -45 -41 c-93 -83 -194 -118
-345 -118 -163 0 -260 34 -347 121 -55 55 -99 142 -118 234 -18 84 -16 256 4
339 64 271 301 407 576 330z m3434 20 c14 -5 16 -28 16 -152 l0 -145 -22 20
c-37 33 -64 43 -115 43 -65 0 -112 -27 -143 -81 l-25 -44 -3 -337 -3 -338
-130 0 -129 0 0 510 0 510 130 0 130 0 0 -45 c0 -45 0 -45 20 -25 54 54 220
105 274 84z m-2189 -329 l102 -310 102 313 103 312 138 0 137 0 -188 -507
-187 -508 -104 -3 -103 -3 -184 498 c-101 274 -186 504 -189 511 -3 10 25 12
134 10 l138 -3 101 -310z"/>
<path d="M4806 1260 c-69 -21 -100 -87 -72 -154 20 -47 63 -66 153 -66 122 0
170 43 180 158 l6 72 -119 -1 c-65 0 -132 -5 -148 -9z"/>
<path d="M2410 1649 c-44 -18 -90 -71 -105 -123 -24 -81 -37 -76 180 -76 217
0 204 -5 180 76 -16 54 -62 106 -108 123 -35 13 -113 13 -147 0z"/>
</g>
</svg>
